<?xml version="1.0" standalone="no"?>
<!DOCTYPE svg PUBLIC "-//W3C//DTD SVG 20010904//EN"
 "http://www.w3.org/TR/2001/REC-SVG-20010904/DTD/svg10.dtd">
<svg version="1.0" xmlns="http://www.w3.org/2000/svg"
 width="1080.000000pt" height="1080.000000pt" viewBox="0 0 1080.000000 1080.000000"
 preserveAspectRatio="xMidYMid meet">

<g transform="translate(0.000000,1080.000000) scale(0.100000,-0.100000)"
fill="#000000" stroke="none">
<path d="M610 6891 c-19 -36 -10 -81 41 -219 110 -298 123 -342 199 -662 27
-115 62 -200 125 -306 115 -190 233 -287 432 -358 107 -38 203 -64 268 -71 33
-4 63 -9 66 -11 4 -2 -19 -43 -51 -91 -108 -164 -147 -255 -169 -393 -29 -179
10 -332 109 -430 76 -76 191 -100 308 -65 143 43 301 183 372 329 66 135 87
303 53 402 l-18 49 -6 -60 c-16 -164 -98 -326 -229 -455 -191 -187 -387 -168
-452 43 -17 58 -20 85 -15 161 10 162 57 297 152 441 38 57 35 55 139 69 54 7
128 46 145 77 22 40 8 76 -34 88 -51 14 -111 -4 -186 -54 l-65 -45 -90 15
c-195 33 -346 114 -479 256 -96 102 -173 241 -219 394 -107 350 -147 470 -203
608 -36 87 -63 160 -61 163 3 2 79 -31 169 -75 90 -43 214 -100 274 -126 522
-224 827 -454 1057 -799 54 -81 65 -104 97 -204 20 -61 34 -88 46 -91 16 -3
17 3 12 45 -18 145 -128 406 -227 536 -118 156 -327 325 -542 438 -150 79
-385 169 -608 235 -143 42 -226 79 -309 139 -72 51 -86 55 -101 27z m1405
-1531 c0 -22 -50 -42 -98 -38 l-42 3 45 28 c47 29 95 33 95 7z"/>
<path d="M2665 6052 c-3 -3 -5 -356 -5 -784 l0 -778 125 0 125 0 -3 783 -2
782 -117 1 c-65 1 -120 -1 -123 -4z"/>
<path d="M4600 5830 l0 -190 -75 0 -75 0 0 -90 0 -90 74 0 75 0 3 -402 c3
-399 3 -404 26 -450 25 -51 75 -95 132 -119 23 -9 69 -14 135 -13 84 1 114 6
188 32 49 17 91 33 94 36 6 6 -35 167 -46 178 -3 4 -35 -2 -70 -12 -75 -24
-110 -25 -157 -5 -62 26 -65 42 -62 418 l3 332 128 3 127 3 0 89 0 89 -127 3
-128 3 -3 188 -2 187 -120 0 -120 0 0 -190z"/>
<path d="M3795 5650 c-121 -26 -231 -90 -302 -178 -24 -29 -43 -49 -43 -45 -1
4 -2 53 -3 108 l-2 100 -107 3 -108 3 0 -576 0 -575 120 0 120 0 0 353 0 354
38 59 c70 108 173 178 279 190 68 9 122 -9 165 -53 65 -68 70 -102 75 -498 2
-192 4 -362 3 -377 l0 -28 121 0 120 0 -4 428 c-3 344 -7 437 -20 479 -35 119
-95 200 -175 236 -52 23 -205 33 -277 17z"/>
<path d="M5705 5641 c-89 -27 -110 -37 -173 -80 -136 -92 -223 -233 -252 -409
-22 -132 15 -305 89 -421 73 -113 210 -210 346 -246 69 -18 230 -20 307 -4
130 26 289 135 346 238 l23 40 -84 26 c-104 31 -121 31 -141 -1 -78 -118 -256
-171 -404 -120 -105 36 -218 177 -225 281 l-2 40 464 3 464 2 -6 113 c-6 130
-27 204 -87 296 -72 111 -165 183 -292 229 -99 35 -282 41 -373 13z m230 -162
c82 -15 144 -49 198 -109 48 -53 87 -139 87 -191 l0 -29 -347 2 -348 3 4 30
c16 136 139 268 275 295 58 11 66 11 131 -1z"/>
<path d="M6999 5645 c-131 -35 -265 -144 -327 -262 -72 -137 -92 -330 -52
-488 93 -363 472 -528 767 -335 35 23 77 62 95 87 40 56 42 51 36 -112 -3 -99
-8 -128 -26 -167 -62 -127 -176 -188 -352 -188 -107 0 -204 28 -283 83 -28 19
-29 19 -50 0 -88 -78 -107 -98 -107 -107 1 -15 74 -68 135 -99 176 -87 467
-82 655 13 80 40 175 131 210 199 61 122 60 108 60 768 l0 603 -105 0 -105 0
0 -100 c0 -55 -3 -100 -7 -100 -5 1 -21 18 -38 38 -35 45 -117 113 -165 137
-86 44 -242 58 -341 30z m328 -226 c66 -32 140 -104 174 -171 16 -32 19 -59
19 -201 0 -163 0 -163 -29 -208 -41 -63 -87 -104 -156 -136 -84 -39 -194 -40
-276 -1 -78 38 -144 104 -182 185 -29 62 -32 76 -32 168 0 80 5 112 23 160 79
209 271 294 459 204z"/>
<path d="M9126 5640 c-71 -18 -215 -82 -259 -114 -17 -13 -16 -18 18 -89 l36
-75 67 39 c100 58 175 81 273 87 204 11 304 -76 310 -270 1 -38 0 -70 -2 -72
-2 -3 -36 4 -74 15 -101 29 -270 36 -369 15 -149 -31 -267 -109 -316 -212 -28
-56 -37 -155 -20 -223 16 -67 77 -158 133 -198 92 -67 242 -91 379 -62 76 16
176 70 240 128 31 28 59 51 62 51 3 0 6 -14 6 -30 0 -42 22 -90 54 -120 25
-22 38 -25 122 -28 l94 -4 0 111 c0 102 -2 111 -19 111 -43 0 -46 18 -51 334
-6 280 -7 305 -28 356 -46 115 -134 197 -257 241 -88 32 -290 36 -399 9z m320
-601 c32 -5 74 -15 92 -22 l32 -11 0 -99 0 -98 -55 -55 c-63 -64 -114 -89
-211 -105 -96 -16 -172 0 -226 49 -52 47 -68 80 -68 142 0 95 49 155 153 191
60 21 191 25 283 8z"/>
<path d="M8505 5621 c-64 -30 -169 -127 -201 -187 -10 -19 -22 -34 -26 -34 -5
0 -8 54 -8 120 l0 120 -110 0 -110 0 0 -575 0 -575 120 0 120 0 0 350 c0 333
1 353 20 391 47 91 161 167 286 190 32 6 69 13 82 15 21 4 22 8 22 109 l0 105
-67 0 c-53 -1 -82 -7 -128 -29z"/>
<path d="M4983 4242 c-30 -4 -45 -26 -41 -59 3 -24 10 -30 53 -44 42 -13 50
-20 50 -40 0 -20 -6 -25 -32 -27 -18 -2 -41 2 -52 7 -12 7 -22 7 -26 2 -16
-26 103 -44 122 -18 34 43 13 78 -56 97 -31 8 -41 16 -41 31 0 25 37 40 69 27
25 -9 37 -5 27 10 -7 12 -43 19 -73 14z"/>
<path d="M2676 4209 c-14 -17 -26 -42 -26 -55 0 -33 25 -81 49 -94 29 -15 77
-12 95 6 24 23 19 37 -6 20 -52 -37 -112 -5 -112 59 0 19 8 43 19 55 20 22 74
27 93 8 6 -6 15 -8 19 -4 14 13 -29 36 -68 36 -29 0 -43 -7 -63 -31z"/>
<path d="M2850 4145 l0 -95 65 0 c37 0 65 4 65 10 0 6 -25 10 -56 10 l-55 0 3
33 c3 30 6 32 46 35 56 4 54 22 -3 22 -43 0 -45 1 -45 30 0 29 1 30 49 30 28
0 53 5 56 10 4 6 -18 10 -59 10 l-66 0 0 -95z"/>
<path d="M3020 4146 c0 -112 18 -131 22 -23 l3 72 59 -72 c32 -40 62 -73 67
-73 5 0 9 43 9 95 0 57 -4 95 -10 95 -6 0 -10 -30 -10 -70 0 -38 -3 -70 -7
-69 -5 0 -30 30 -58 66 -27 37 -56 68 -62 71 -10 3 -13 -20 -13 -92z"/>
<path d="M3215 4230 c3 -5 19 -10 36 -10 l29 0 0 -85 c0 -50 4 -85 10 -85 6 0
10 35 10 85 0 78 2 85 20 86 33 2 38 4 46 12 4 4 -30 7 -75 7 -52 0 -80 -4
-76 -10z"/>
<path d="M3400 4145 c0 -57 4 -95 10 -95 6 0 10 16 10 35 0 32 3 35 28 35 20
0 33 -9 51 -35 13 -19 27 -35 32 -35 14 0 10 13 -10 40 -19 24 -19 25 0 48 23
30 24 50 3 80 -12 18 -25 22 -70 22 l-54 0 0 -95z m110 60 c10 -12 10 -21 2
-40 -10 -21 -19 -25 -52 -25 l-40 0 0 40 c0 40 0 40 39 40 22 0 44 -6 51 -15z"/>
<path d="M3614 4232 c-48 -33 -57 -105 -18 -151 41 -49 108 -40 139 19 22 42
19 74 -11 109 -20 24 -34 31 -62 31 -21 0 -42 -4 -48 -8z m96 -39 c37 -47 6
-123 -49 -123 -32 0 -44 8 -61 39 -13 25 -7 75 11 98 20 24 75 16 99 -14z"/>
<path d="M3858 4218 c-6 -42 3 -168 12 -168 5 0 10 33 12 73 l3 72 24 -45 c40
-77 41 -77 77 -13 37 64 37 64 34 -24 -1 -52 1 -63 14 -63 14 0 16 15 16 95 0
116 -13 123 -62 35 -18 -33 -35 -60 -38 -60 -3 0 -19 26 -35 57 -34 63 -52 76
-57 41z"/>
<path d="M4090 4180 c0 -93 26 -130 88 -130 55 1 82 45 82 136 0 41 -4 54 -15
54 -12 0 -15 -14 -15 -69 0 -75 -14 -101 -53 -101 -46 0 -67 39 -67 121 0 27
-4 49 -10 49 -6 0 -10 -27 -10 -60z"/>
<path d="M4300 4145 l0 -95 65 0 c37 0 65 4 65 10 0 6 -25 10 -55 10 l-55 0 0
85 c0 50 -4 85 -10 85 -6 0 -10 -38 -10 -95z"/>
<path d="M4420 4230 c0 -5 14 -10 30 -10 l30 0 0 -86 c0 -61 3 -85 12 -82 8 3
11 32 11 86 l-1 82 29 0 c15 0 31 5 34 10 4 6 -22 10 -69 10 -44 0 -76 -4 -76
-10z"/>
<path d="M4600 4144 c0 -72 3 -95 13 -92 8 3 13 34 15 96 3 78 1 92 -12 92
-13 0 -16 -15 -16 -96z"/>
<path d="M4680 4155 c0 -47 -1 -88 -2 -92 -2 -5 21 -9 49 -11 45 -3 56 1 78
22 19 19 25 35 25 71 0 65 -31 95 -100 95 l-50 0 0 -85z m115 42 c21 -31 19
-83 -5 -107 -12 -12 -33 -20 -55 -20 l-35 0 0 78 0 78 40 -4 c27 -3 45 -11 55
-25z"/>
<path d="M4870 4144 c0 -66 3 -95 11 -92 17 6 15 188 -1 188 -6 0 -10 -39 -10
-96z"/>
<path d="M5138 4226 c-20 -15 -38 -58 -38 -91 0 -35 52 -85 88 -85 31 0 82 33
70 45 -4 4 -14 0 -23 -9 -25 -25 -70 -20 -94 10 -52 66 4 145 83 116 36 -14
43 -10 21 12 -20 19 -83 21 -107 2z"/>
<path d="M5300 4145 c0 -57 4 -95 10 -95 6 0 10 38 10 95 0 57 -4 95 -10 95
-6 0 -10 -38 -10 -95z"/>
<path d="M5370 4145 c0 -57 4 -95 10 -95 6 0 10 16 10 35 0 34 1 35 40 35 67
0 99 49 64 98 -12 18 -25 22 -70 22 l-54 0 0 -95z m111 54 c17 -33 -5 -59 -51
-59 -40 0 -40 0 -40 39 0 33 4 40 23 43 34 5 57 -2 68 -23z"/>
<path d="M5540 4145 l0 -95 65 0 c37 0 65 4 65 10 0 6 -25 10 -55 10 l-55 0 0
85 c0 50 -4 85 -10 85 -6 0 -10 -38 -10 -95z"/>
<path d="M5700 4144 c0 -72 3 -95 13 -92 8 3 13 34 15 96 2 77 0 92 -13 92
-12 0 -15 -16 -15 -96z"/>
<path d="M5774 4148 c1 -61 5 -93 13 -95 9 -3 13 17 15 69 l3 73 55 -72 c30
-40 61 -72 68 -73 9 0 12 25 12 95 0 79 -3 95 -15 95 -13 0 -15 -12 -13 -64 1
-36 0 -67 -3 -70 -3 -3 -29 26 -59 64 -30 39 -60 70 -66 70 -8 0 -11 -29 -10
-92z"/>
<path d="M6011 4158 c-18 -46 -35 -89 -38 -95 -10 -26 16 -12 29 15 10 21 21
28 50 30 32 3 39 -1 53 -27 8 -17 20 -31 26 -31 6 0 9 4 7 8 -1 5 -18 47 -37
95 -19 48 -40 87 -46 87 -7 0 -27 -37 -44 -82z m58 30 c25 -67 25 -68 -11 -65
-35 3 -37 11 -18 63 12 30 18 30 29 2z"/>
<path d="M6170 4144 c0 -70 3 -95 12 -92 7 3 12 18 13 34 0 24 5 30 26 32 21
2 31 -4 49 -32 12 -20 26 -36 32 -36 5 0 8 3 6 8 -2 4 -10 19 -17 34 -12 24
-12 30 2 46 19 21 22 54 7 83 -9 15 -22 19 -70 19 l-60 0 0 -96z m116 50 c9
-35 -13 -56 -55 -52 -34 3 -36 5 -37 40 -2 31 2 37 20 40 40 6 66 -4 72 -28z"/>
<path d="M6360 4155 c0 -47 0 -88 -1 -92 0 -4 4 -9 10 -11 7 -2 11 28 11 92 0
57 -4 96 -10 96 -6 0 -10 -35 -10 -85z"/>
<path d="M6447 4222 c-42 -46 -39 -125 6 -157 33 -23 84 -19 112 10 19 18 25
35 25 70 0 35 -6 52 -25 70 -30 31 -93 34 -118 7z m107 -24 c22 -31 20 -84 -4
-108 -43 -43 -110 -10 -110 53 0 48 24 77 65 77 24 0 39 -7 49 -22z"/>
</g>
</svg>
